<?xml version="1.0" encoding="UTF-8" standalone="no"?>
<svg
   xmlns:dc="http://purl.org/dc/elements/1.1/"
   xmlns:cc="http://creativecommons.org/ns#"
   xmlns:rdf="http://www.w3.org/1999/02/22-rdf-syntax-ns#"
   xmlns:svg="http://www.w3.org/2000/svg"
   xmlns="http://www.w3.org/2000/svg"
   xmlns:sodipodi="http://sodipodi.sourceforge.net/DTD/sodipodi-0.dtd"
   xmlns:inkscape="http://www.inkscape.org/namespaces/inkscape"
   sodipodi:docname="strolr_bot.svg"
   inkscape:version="1.0 (4035a4fb49, 2020-05-01)"
   id="svg959"
   version="1.1"
   viewBox="0 0 79.375 79.375"
   height="300"
   width="300">
  <defs
     id="defs953" />
  <sodipodi:namedview
     inkscape:window-maximized="0"
     inkscape:window-y="0"
     inkscape:window-x="114"
     inkscape:window-height="1008"
     inkscape:window-width="1624"
     width="300px"
     units="px"
     showgrid="false"
     inkscape:document-rotation="0"
     inkscape:current-layer="layer1"
     inkscape:document-units="mm"
     inkscape:cy="230.03169"
     inkscape:cx="292.60931"
     inkscape:zoom="1.4"
     inkscape:pageshadow="2"
     inkscape:pageopacity="0.0"
     borderopacity="1.0"
     bordercolor="#666666"
     pagecolor="#ffffff"
     id="base" />
  <metadata
     id="metadata956">
    <rdf:RDF>
      <cc:Work
         rdf:about="">
        <dc:format>image/svg+xml</dc:format>
        <dc:type
           rdf:resource="http://purl.org/dc/dcmitype/StillImage" />
        <dc:title></dc:title>
      </cc:Work>
    </rdf:RDF>
  </metadata>
  <g
     id="layer1"
     inkscape:groupmode="layer"
     inkscape:label="Layer 1">
    <path
       sodipodi:nodetypes="ccasccccsssccccccccc"
       d="m 39.479299,31.447639 c -17.096625,0.03741 -29.155288,5.17363 -31.4154099,14.019644 0.02205,0.0064 -0.03421,0.05271 -0.0428,0.08216 -0.836181,2.861987 -1.345772,5.421815 -0.764356,8.87655 0.751523,4.465333 2.8994279,8.472663 5.4788879,10.221901 l 0.983501,0.900964 -6.6892899,4.495934 11.0049659,-1.102773 c 6.023786,2.605369 16.582121,2.544888 24.167773,2.544875 8.689219,0 15.46272,-0.397908 20.715206,-2.544875 2.573776,-1.052049 5.583599,-2.979014 6.905074,-5.089736 0.01894,-0.03021 0.04532,-0.07727 0.06549,-0.110315 1.463661,-1.63432 2.666788,-4.005659 3.387129,-6.675969 1.162716,-4.310917 1.161763,-10.660825 -2.872289,-16.340069 -5.182966,-4.577282 -5.852825,-8.188285 -30.789984,-9.278264 -0.04463,-5.2e-5 -0.08912,-5.2e-5 -0.133742,0 z M 8.0638891,45.467283 c -0.0567,-0.01594 0.61175,-0.105944 0.665551,-0.0513 0.0047,-0.01749 -0.670005,0.06879 -0.665551,0.0513 z"
       style="opacity:0.996;fill:#87a8e4;fill-opacity:1;stroke:#87a8e4;stroke-width:0.0646812;stroke-miterlimit:4;stroke-dasharray:none;stroke-opacity:0.996078"
       id="path862-5-7-3-8" />
    <path
       id="path981-2-5-3-4"
       style="opacity:1;fill:#ffffff;fill-opacity:0.996078;stroke:#ffc8c8;stroke-width:0.431002;stroke-miterlimit:4;stroke-dasharray:none;stroke-opacity:0.996078"
       d="m 47.124236,6.1595168 a 0.84078192,1.3269213 11.446818 0 0 -0.981441,1.1597725 0.84078192,1.3269213 11.446818 0 0 0.573557,1.4539954 0.84078192,1.3269213 11.446818 0 0 1.080506,-1.150807 0.84078192,1.3269213 11.446818 0 0 -0.573556,-1.4539993 0.84078192,1.3269213 11.446818 0 0 -0.09906,-0.009 z m -0.407884,2.6137679 a 0.84078192,1.3269213 11.446818 0 0 -1.080851,1.1508069 0.84078192,1.3269213 11.446818 0 0 0.573556,1.4540084 0.84078192,1.3269213 11.446818 0 0 -0.668531,1.072622 0.84078192,1.3269213 11.446818 0 0 0.452636,1.416529 0.84078192,1.3269213 11.446818 0 0 -0.429742,0.885072 0.84078192,1.3269213 11.446818 0 0 0.109011,1.066952 0.84078192,1.3269213 11.446818 0 0 -0.764859,1.117365 0.84078192,1.3269213 11.446818 0 0 0.573559,1.453995 1.3255323,0.84166303 87.051601 0 0 -0.775453,1.362876 1.3255323,0.84166303 87.051601 0 0 0.906641,1.284999 1.3255323,0.84166303 87.051601 0 0 0.775109,-1.36321 1.3255323,0.84166303 87.051601 0 0 -0.785707,-1.276719 0.84078192,1.3269213 11.446818 0 0 0.959932,-1.158753 0.84078192,1.3269213 11.446818 0 0 -0.108596,-1.06699 0.84078192,1.3269213 11.446818 0 0 0.764529,-1.117327 0.84078192,1.3269213 11.446818 0 0 -0.452293,-1.416554 0.84078192,1.3269213 11.446818 0 0 0.429395,-0.885072 0.84078192,1.3269213 11.446818 0 0 -0.573227,-1.453996 0.84078192,1.3269213 11.446818 0 0 0.668202,-1.072609 0.84078192,1.3269213 11.446818 0 0 -0.573226,-1.4539953 z" />
    <path
       id="path839-4-9-0-5"
       style="fill:#ffd5d5;fill-opacity:1;stroke:#ffd5d5;stroke-width:0.470876;stroke-miterlimit:4;stroke-dasharray:none;stroke-opacity:0.996078"
       d="m 63.026648,22.979206 c 0.113847,7.544584 -8.334624,14.74607 -21.087018,14.773109 -12.752383,0.02687 -22.421154,-7.136056 -22.535014,-14.680626 -0.113847,-7.54461 10.213204,0.511721 22.9656,0.484939 12.752354,-0.02713 20.542529,-8.121993 20.656432,-0.577422 z"
       sodipodi:nodetypes="sssss" />
    <path
       id="path859-8-1-5-4"
       style="fill:#ffd5d5;fill-opacity:1;stroke:#ffd5d5;stroke-width:0.304696;stroke-miterlimit:4.6;stroke-dasharray:none;stroke-opacity:0.996078"
       d="m 60.787405,15.108278 c -0.305715,1.650468 -0.400383,2.373062 -2.521825,3.409117 -2.232347,1.090237 -5.80409,1.528311 -8.362074,2.031071 -1.243845,0.244469 -3.118569,0.523524 -3.596118,0.150302 -1.444028,-1.128564 0.115367,-4.037763 0.586861,-6.583191 0.385795,-2.082435 -0.607073,-7.9472272 1.342177,-8.3668257 1.415759,-0.3047313 2.282266,-0.6023139 4.214341,-0.1912783 5.015661,1.0670197 8.964095,6.163583 8.336638,9.550792 z"
       sodipodi:nodetypes="ssssssss" />
    <ellipse
       cy="26.461584"
       cx="45.669018"
       style="fill:#ff8080;stroke:#f4d7d7;stroke-width:0.172259"
       id="path943-0-2-0-3"
       rx="0.0010920579"
       ry="0.0010592857" />
    <ellipse
       cy="12.16811"
       cx="53.014954"
       style="fill:#ff8080;stroke:#f4d7d7;stroke-width:0.172259"
       id="path945-9-9-5-0"
       rx="0.0010920579"
       ry="0.0010592857" />
    <path
       style="fill:#87a8e4;fill-opacity:1;fill-rule:nonzero;stroke:none;stroke-width:1.12494"
       id="path1213-68-6-0"
       d="m 29.584785,47.7789 c 0.462446,-2.938514 1.724693,-5.82934 2.967403,-8.713956 1.115062,-2.254286 2.370773,-4.511838 4.289213,-6.654883 0.320622,-0.358192 0.689587,-0.706703 1.034388,-1.060137 2.177261,-2.075814 5.108521,-3.965351 8.10512,-5.804989 1.797243,-1.057579 3.666842,-2.103984 5.875094,-2.986639 0.240211,-0.081 0.478225,-0.163237 0.720589,-0.242528 0.409144,-0.134089 0.813712,-0.271649 1.238055,-0.395298 0.207286,-0.0603 0.850024,-0.225787 0.63819,-0.168701 -4.732482,1.273942 -6.233684,1.623172 -4.030061,1.101448 1.930504,-0.512968 3.861006,-1.025834 5.791546,-1.538815 0.155698,-0.04281 0.623809,-0.168971 0.467175,-0.127416 -1.618117,0.430951 -6.474959,1.721685 -4.851497,1.295053 1.888777,-0.496434 3.763971,-1.003681 5.647507,-1.504254 0.111912,-0.02957 0.450385,-0.116616 0.338683,-0.08692 -1.656219,0.442227 -3.314804,0.882629 -4.972221,1.323931 2.607403,-0.480272 4.866219,-1.200655 7.332188,-1.857882 0.418538,-0.141804 0.853751,-0.261557 1.25839,-0.411962 0,0 -5.734718,1.047589 -5.734718,1.047589 v 0 c -0.422628,0.13189 -0.844838,0.264166 -1.279406,0.387609 10.440507,-2.759759 5.080985,-1.20896 3.258707,-0.93798 -1.877336,0.489556 -3.756593,0.977645 -5.632007,1.468795 -0.111774,0.0288 -0.441472,0.122016 -0.329646,0.0927 1.643027,-0.431517 6.573235,-1.725349 4.923564,-1.299142 -1.912428,0.494042 -3.809717,1.000351 -5.71188,1.502789 -0.155255,0.04127 -0.615726,0.168122 -0.460153,0.127416 1.586724,-0.415394 3.169123,-0.834196 4.753674,-1.251236 -3.140783,0.735066 -6.302667,1.501889 -9.029085,2.538266 -2.121625,0.913603 -3.969116,1.951998 -5.71977,3.016815 -2.965953,1.859091 -5.882817,3.761344 -8.020439,5.854695 -0.33705,0.357794 -0.697629,0.711061 -1.011246,1.073342 -1.863865,2.152971 -3.080338,4.41321 -4.148286,6.672523 -1.239518,2.925207 -2.493945,5.853294 -3.1706,8.820171 0,0 5.461584,-1.280229 5.461584,-1.280229 z" />
    <ellipse
       id="path1215-9-5-3"
       style="fill:#000000;stroke:#000000;stroke-width:0.172259"
       cx="27.289692"
       cy="40.250607"
       rx="0.011557612"
       ry="0.011210772" />
    <path
       d="m 51.533914,42.112732 c -0.04546,-2.734944 -0.88365,-5.476433 -1.703745,-8.211042 -0.782367,-2.146118 -1.702617,-4.304129 -3.290597,-6.398586 -0.26511,-0.35004 -0.57965,-0.694282 -0.869475,-1.041507 -1.851886,-2.048839 -4.471189,-3.973862 -7.161755,-5.857009 -1.620062,-1.087305 -3.312771,-2.168888 -5.361457,-3.121127 -0.224792,-0.08974 -0.44758,-0.180323 -0.674859,-0.268923 -0.383845,-0.149209 -0.762344,-0.301504 -1.162437,-0.442176 -0.195446,-0.06853 -0.804401,-0.261659 -0.604078,-0.195856 4.476493,1.471945 5.904149,1.888342 3.809813,1.26876 -1.827017,-0.594278 -3.654089,-1.188427 -5.481148,-1.782692 -0.147033,-0.04899 -0.589806,-0.195123 -0.441487,-0.146844 1.531251,0.49898 6.127697,1.994234 4.590644,1.498855 -1.788304,-0.576355 -3.561714,-1.161864 -5.344298,-1.741781 -0.105971,-0.03433 -0.426966,-0.135657 -0.320843,-0.101187 1.567146,0.511773 3.136903,1.022054 4.705333,1.533107 -2.497289,-0.606917 -4.618248,-1.412904 -6.951786,-2.1738 -0.391984,-0.157078 -0.80313,-0.294754 -1.180081,-0.458813 0,0 5.493693,1.326798 5.493693,1.326798 v 0 c 0.397082,0.14809 0.794025,0.296605 1.204135,0.437688 -9.882839,-3.200507 -4.828298,-1.434079 -3.073914,-1.069471 1.777956,0.569348 3.558053,1.137448 5.333922,1.708146 0.105971,0.03369 0.416963,0.140235 0.311682,0.106201 -1.555636,-0.501114 -6.223873,-2.003838 -4.660941,-1.507199 1.811888,0.5757 3.607183,1.161736 5.40777,1.744494 0.147047,0.04783 0.581971,0.193695 0.434717,0.146368 -1.502499,-0.48269 -3.000314,-0.968272 -4.500478,-1.452389 2.986235,0.875237 5.98887,1.780996 8.525647,2.907477 1.959184,0.975266 3.631278,2.048055 5.204518,3.139075 2.657682,1.899142 5.261093,3.834952 7.071533,5.897433 0.281992,0.350773 0.586957,0.698821 0.844894,1.052217 1.532895,2.100101 2.414144,4.258138 3.149517,6.40594 0.811326,2.771742 1.636823,5.547096 1.888736,8.32168 0,0 -5.192594,-1.523772 -5.192594,-1.523772 z"
       id="path1213-6-0-7-1"
       style="fill:#87a8e4;fill-opacity:1;fill-rule:nonzero;stroke:none;stroke-width:1.07567" />
    <g
       transform="matrix(0.64496081,0.02645352,-0.0496924,1.1695903,-27.395146,-125.07942)"
       id="g877-5-5-3-4"
       inkscape:transform-center-x="-0.41804359"
       inkscape:transform-center-y="0.82348065">
      <path
         id="path869-2-2-7-5"
         style="opacity:1;fill:#d5fbff;fill-opacity:1;stroke:#87a8e4;stroke-width:0.0787743;stroke-opacity:0.996078"
         d="m 157.94241,153.89291 c -10.40416,5.10282 -26.10106,5.46396 -41.14321,6.02809 -13.81647,0.51817 -38.183873,-1.18471 -40.119013,-4.71599 -0.681384,-1.24341 -1.631629,-14.18764 -1.328182,-12.76184 8.88802,-3.6659 24.657305,-2.98498 41.022185,-3.42074 14.94961,-0.39808 31.45843,-1.71486 40.87201,1.8843"
         sodipodi:nodetypes="csscsc" />
    </g>
    <ellipse
       style="fill:#2b0000;stroke:#2b0000;stroke-width:0.0651061;stroke-opacity:1"
       id="path842-4-1-2-2"
       cx="23.546761"
       cy="49.739891"
       rx="5.2471251"
       ry="5.0896606" />
    <ellipse
       cy="50.112488"
       cx="56.16927"
       id="path842-5-4-7-5-9"
       style="fill:#2b0000;stroke:#2b0000;stroke-width:0.0651061;stroke-opacity:1"
       rx="5.2471251"
       ry="5.0896606" />
    <path
       id="path962-5-6-0-2"
       style="opacity:1;fill:#2b0000;fill-opacity:1;stroke:#2b0000;stroke-width:0.0651061;stroke-miterlimit:4;stroke-dasharray:none;stroke-opacity:1"
       d="m 45.381666,56.41192 c -2.6e-5,0.468495 -1.383266,2.502407 -5.247127,2.502407 -3.863863,0 -5.115927,-1.821856 -5.115941,-2.290351 -2.8e-5,-0.468482 1.25205,0.593802 5.115941,0.593802 3.863877,0 5.247127,-1.274353 5.247127,-0.805858 z"
       sodipodi:nodetypes="sssss" />
  </g>
</svg>
